<mxfile host="app.diagrams.net" modified="2023-06-28T21:53:34.379Z" agent="Mozilla/5.0 (X11; Linux x86_64) AppleWebKit/537.36 (KHTML, like Gecko) Chrome/114.0.0.0 Safari/537.36 Edg/114.0.1823.58" etag="UryQ8xOJYVjSjZaZBX-c" version="21.5.2" type="github">
  <diagram name="Page-1" id="2YBvvXClWsGukQMizWep">
    <mxGraphModel dx="1090" dy="541" grid="1" gridSize="10" guides="1" tooltips="1" connect="1" arrows="1" fold="1" page="1" pageScale="1" pageWidth="850" pageHeight="1100" math="0" shadow="0">
      <root>
        <mxCell id="0" />
        <mxCell id="1" parent="0" />
        <mxCell id="aM9ryv3xv72pqoxQDRHE-1" value="Web App" style="shape=umlLifeline;perimeter=lifelinePerimeter;whiteSpace=wrap;html=1;container=0;dropTarget=0;collapsible=0;recursiveResize=0;outlineConnect=0;portConstraint=eastwest;newEdgeStyle={&quot;edgeStyle&quot;:&quot;elbowEdgeStyle&quot;,&quot;elbow&quot;:&quot;vertical&quot;,&quot;curved&quot;:0,&quot;rounded&quot;:0};" parent="1" vertex="1">
          <mxGeometry x="70" y="40" width="100" height="440" as="geometry" />
        </mxCell>
        <mxCell id="aM9ryv3xv72pqoxQDRHE-2" value="" style="html=1;points=[];perimeter=orthogonalPerimeter;outlineConnect=0;targetShapes=umlLifeline;portConstraint=eastwest;newEdgeStyle={&quot;edgeStyle&quot;:&quot;elbowEdgeStyle&quot;,&quot;elbow&quot;:&quot;vertical&quot;,&quot;curved&quot;:0,&quot;rounded&quot;:0};" parent="aM9ryv3xv72pqoxQDRHE-1" vertex="1">
          <mxGeometry x="45" y="70" width="10" height="60" as="geometry" />
        </mxCell>
        <mxCell id="aM9ryv3xv72pqoxQDRHE-3" value="artifact" style="html=1;verticalAlign=bottom;startArrow=oval;endArrow=block;startSize=8;edgeStyle=elbowEdgeStyle;elbow=vertical;curved=0;rounded=0;" parent="aM9ryv3xv72pqoxQDRHE-1" target="aM9ryv3xv72pqoxQDRHE-2" edge="1">
          <mxGeometry relative="1" as="geometry">
            <mxPoint x="-15" y="70" as="sourcePoint" />
          </mxGeometry>
        </mxCell>
        <mxCell id="Af0-aZXDuTqrMrXIIRP5-59" value="" style="html=1;points=[];perimeter=orthogonalPerimeter;outlineConnect=0;targetShapes=umlLifeline;portConstraint=eastwest;newEdgeStyle={&quot;edgeStyle&quot;:&quot;elbowEdgeStyle&quot;,&quot;elbow&quot;:&quot;vertical&quot;,&quot;curved&quot;:0,&quot;rounded&quot;:0};" vertex="1" parent="aM9ryv3xv72pqoxQDRHE-1">
          <mxGeometry x="45" y="280" width="10" height="120" as="geometry" />
        </mxCell>
        <mxCell id="aM9ryv3xv72pqoxQDRHE-5" value="Backend" style="shape=umlLifeline;perimeter=lifelinePerimeter;whiteSpace=wrap;html=1;container=0;dropTarget=0;collapsible=0;recursiveResize=0;outlineConnect=0;portConstraint=eastwest;newEdgeStyle={&quot;edgeStyle&quot;:&quot;elbowEdgeStyle&quot;,&quot;elbow&quot;:&quot;vertical&quot;,&quot;curved&quot;:0,&quot;rounded&quot;:0};" parent="1" vertex="1">
          <mxGeometry x="190" y="40" width="100" height="440" as="geometry" />
        </mxCell>
        <mxCell id="aM9ryv3xv72pqoxQDRHE-6" value="" style="html=1;points=[];perimeter=orthogonalPerimeter;outlineConnect=0;targetShapes=umlLifeline;portConstraint=eastwest;newEdgeStyle={&quot;edgeStyle&quot;:&quot;elbowEdgeStyle&quot;,&quot;elbow&quot;:&quot;vertical&quot;,&quot;curved&quot;:0,&quot;rounded&quot;:0};" parent="aM9ryv3xv72pqoxQDRHE-5" vertex="1">
          <mxGeometry x="45" y="80" width="10" height="50" as="geometry" />
        </mxCell>
        <mxCell id="Af0-aZXDuTqrMrXIIRP5-52" value="" style="html=1;points=[];perimeter=orthogonalPerimeter;outlineConnect=0;targetShapes=umlLifeline;portConstraint=eastwest;newEdgeStyle={&quot;edgeStyle&quot;:&quot;elbowEdgeStyle&quot;,&quot;elbow&quot;:&quot;vertical&quot;,&quot;curved&quot;:0,&quot;rounded&quot;:0};" vertex="1" parent="aM9ryv3xv72pqoxQDRHE-5">
          <mxGeometry x="45" y="220" width="10" height="20" as="geometry" />
        </mxCell>
        <mxCell id="Af0-aZXDuTqrMrXIIRP5-64" value="" style="html=1;points=[];perimeter=orthogonalPerimeter;outlineConnect=0;targetShapes=umlLifeline;portConstraint=eastwest;newEdgeStyle={&quot;edgeStyle&quot;:&quot;elbowEdgeStyle&quot;,&quot;elbow&quot;:&quot;vertical&quot;,&quot;curved&quot;:0,&quot;rounded&quot;:0};" vertex="1" parent="aM9ryv3xv72pqoxQDRHE-5">
          <mxGeometry x="45" y="290" width="10" height="110" as="geometry" />
        </mxCell>
        <mxCell id="Af0-aZXDuTqrMrXIIRP5-1" value="Docker" style="shape=umlLifeline;perimeter=lifelinePerimeter;whiteSpace=wrap;html=1;container=0;dropTarget=0;collapsible=0;recursiveResize=0;outlineConnect=0;portConstraint=eastwest;newEdgeStyle={&quot;edgeStyle&quot;:&quot;elbowEdgeStyle&quot;,&quot;elbow&quot;:&quot;vertical&quot;,&quot;curved&quot;:0,&quot;rounded&quot;:0};" vertex="1" parent="1">
          <mxGeometry x="670" y="40" width="100" height="440" as="geometry" />
        </mxCell>
        <mxCell id="Af0-aZXDuTqrMrXIIRP5-2" value="" style="html=1;points=[];perimeter=orthogonalPerimeter;outlineConnect=0;targetShapes=umlLifeline;portConstraint=eastwest;newEdgeStyle={&quot;edgeStyle&quot;:&quot;elbowEdgeStyle&quot;,&quot;elbow&quot;:&quot;vertical&quot;,&quot;curved&quot;:0,&quot;rounded&quot;:0};" vertex="1" parent="Af0-aZXDuTqrMrXIIRP5-1">
          <mxGeometry x="45" y="90" width="10" height="30" as="geometry" />
        </mxCell>
        <mxCell id="Af0-aZXDuTqrMrXIIRP5-37" value="" style="html=1;points=[];perimeter=orthogonalPerimeter;outlineConnect=0;targetShapes=umlLifeline;portConstraint=eastwest;newEdgeStyle={&quot;edgeStyle&quot;:&quot;elbowEdgeStyle&quot;,&quot;elbow&quot;:&quot;vertical&quot;,&quot;curved&quot;:0,&quot;rounded&quot;:0};" vertex="1" parent="Af0-aZXDuTqrMrXIIRP5-1">
          <mxGeometry x="45" y="150" width="10" height="50" as="geometry" />
        </mxCell>
        <mxCell id="Af0-aZXDuTqrMrXIIRP5-73" value="" style="html=1;points=[];perimeter=orthogonalPerimeter;outlineConnect=0;targetShapes=umlLifeline;portConstraint=eastwest;newEdgeStyle={&quot;edgeStyle&quot;:&quot;elbowEdgeStyle&quot;,&quot;elbow&quot;:&quot;vertical&quot;,&quot;curved&quot;:0,&quot;rounded&quot;:0};" vertex="1" parent="Af0-aZXDuTqrMrXIIRP5-1">
          <mxGeometry x="45" y="320" width="10" height="60" as="geometry" />
        </mxCell>
        <mxCell id="Af0-aZXDuTqrMrXIIRP5-15" value="Monitoring" style="shape=umlLifeline;perimeter=lifelinePerimeter;whiteSpace=wrap;html=1;container=0;dropTarget=0;collapsible=0;recursiveResize=0;outlineConnect=0;portConstraint=eastwest;newEdgeStyle={&quot;edgeStyle&quot;:&quot;elbowEdgeStyle&quot;,&quot;elbow&quot;:&quot;vertical&quot;,&quot;curved&quot;:0,&quot;rounded&quot;:0};" vertex="1" parent="1">
          <mxGeometry x="430" y="40" width="100" height="440" as="geometry" />
        </mxCell>
        <mxCell id="Af0-aZXDuTqrMrXIIRP5-36" value="" style="html=1;points=[];perimeter=orthogonalPerimeter;outlineConnect=0;targetShapes=umlLifeline;portConstraint=eastwest;newEdgeStyle={&quot;edgeStyle&quot;:&quot;elbowEdgeStyle&quot;,&quot;elbow&quot;:&quot;vertical&quot;,&quot;curved&quot;:0,&quot;rounded&quot;:0};" vertex="1" parent="Af0-aZXDuTqrMrXIIRP5-15">
          <mxGeometry x="45" y="140" width="10" height="70" as="geometry" />
        </mxCell>
        <mxCell id="Af0-aZXDuTqrMrXIIRP5-17" value="Forwarding&lt;br&gt;Manager" style="shape=umlLifeline;perimeter=lifelinePerimeter;whiteSpace=wrap;html=1;container=0;dropTarget=0;collapsible=0;recursiveResize=0;outlineConnect=0;portConstraint=eastwest;newEdgeStyle={&quot;edgeStyle&quot;:&quot;elbowEdgeStyle&quot;,&quot;elbow&quot;:&quot;vertical&quot;,&quot;curved&quot;:0,&quot;rounded&quot;:0};" vertex="1" parent="1">
          <mxGeometry x="550" y="40" width="100" height="440" as="geometry" />
        </mxCell>
        <mxCell id="Af0-aZXDuTqrMrXIIRP5-70" value="" style="html=1;points=[];perimeter=orthogonalPerimeter;outlineConnect=0;targetShapes=umlLifeline;portConstraint=eastwest;newEdgeStyle={&quot;edgeStyle&quot;:&quot;elbowEdgeStyle&quot;,&quot;elbow&quot;:&quot;vertical&quot;,&quot;curved&quot;:0,&quot;rounded&quot;:0};" vertex="1" parent="Af0-aZXDuTqrMrXIIRP5-17">
          <mxGeometry x="45" y="310" width="10" height="70" as="geometry" />
        </mxCell>
        <mxCell id="Af0-aZXDuTqrMrXIIRP5-19" value="Container" style="shape=umlLifeline;perimeter=lifelinePerimeter;whiteSpace=wrap;html=1;container=0;dropTarget=0;collapsible=0;recursiveResize=0;outlineConnect=0;portConstraint=eastwest;newEdgeStyle={&quot;edgeStyle&quot;:&quot;elbowEdgeStyle&quot;,&quot;elbow&quot;:&quot;vertical&quot;,&quot;curved&quot;:0,&quot;rounded&quot;:0};" vertex="1" parent="1">
          <mxGeometry x="790" y="40" width="100" height="440" as="geometry" />
        </mxCell>
        <mxCell id="Af0-aZXDuTqrMrXIIRP5-40" value="" style="html=1;points=[];perimeter=orthogonalPerimeter;outlineConnect=0;targetShapes=umlLifeline;portConstraint=eastwest;newEdgeStyle={&quot;edgeStyle&quot;:&quot;elbowEdgeStyle&quot;,&quot;elbow&quot;:&quot;vertical&quot;,&quot;curved&quot;:0,&quot;rounded&quot;:0};" vertex="1" parent="Af0-aZXDuTqrMrXIIRP5-19">
          <mxGeometry x="45" y="160" width="10" height="30" as="geometry" />
        </mxCell>
        <mxCell id="Af0-aZXDuTqrMrXIIRP5-23" style="edgeStyle=elbowEdgeStyle;rounded=0;orthogonalLoop=1;jettySize=auto;html=1;elbow=vertical;curved=0;" edge="1" parent="1" source="aM9ryv3xv72pqoxQDRHE-2" target="aM9ryv3xv72pqoxQDRHE-6">
          <mxGeometry relative="1" as="geometry">
            <Array as="points">
              <mxPoint x="200" y="120" />
            </Array>
          </mxGeometry>
        </mxCell>
        <mxCell id="Af0-aZXDuTqrMrXIIRP5-24" value="artifact" style="edgeLabel;html=1;align=center;verticalAlign=middle;resizable=0;points=[];" vertex="1" connectable="0" parent="Af0-aZXDuTqrMrXIIRP5-23">
          <mxGeometry x="0.0727" relative="1" as="geometry">
            <mxPoint x="-14" y="-10" as="offset" />
          </mxGeometry>
        </mxCell>
        <mxCell id="Af0-aZXDuTqrMrXIIRP5-25" value="" style="edgeStyle=elbowEdgeStyle;rounded=0;orthogonalLoop=1;jettySize=auto;html=1;elbow=vertical;curved=0;" edge="1" parent="1" source="aM9ryv3xv72pqoxQDRHE-6" target="Af0-aZXDuTqrMrXIIRP5-2">
          <mxGeometry relative="1" as="geometry">
            <Array as="points">
              <mxPoint x="520" y="130" />
            </Array>
          </mxGeometry>
        </mxCell>
        <mxCell id="Af0-aZXDuTqrMrXIIRP5-26" value="artifact" style="edgeLabel;html=1;align=center;verticalAlign=middle;resizable=0;points=[];" vertex="1" connectable="0" parent="Af0-aZXDuTqrMrXIIRP5-25">
          <mxGeometry x="0.0389" relative="1" as="geometry">
            <mxPoint x="-64" y="-10" as="offset" />
          </mxGeometry>
        </mxCell>
        <mxCell id="Af0-aZXDuTqrMrXIIRP5-27" value="" style="edgeStyle=elbowEdgeStyle;rounded=0;orthogonalLoop=1;jettySize=auto;html=1;elbow=vertical;curved=0;" edge="1" parent="1" source="Af0-aZXDuTqrMrXIIRP5-2" target="Af0-aZXDuTqrMrXIIRP5-19">
          <mxGeometry relative="1" as="geometry">
            <mxPoint x="835" y="140" as="targetPoint" />
            <Array as="points">
              <mxPoint x="740" y="140" />
              <mxPoint x="800" y="140" />
              <mxPoint x="810" y="140" />
            </Array>
          </mxGeometry>
        </mxCell>
        <mxCell id="Af0-aZXDuTqrMrXIIRP5-28" value="artifact" style="edgeLabel;html=1;align=center;verticalAlign=middle;resizable=0;points=[];" vertex="1" connectable="0" parent="Af0-aZXDuTqrMrXIIRP5-27">
          <mxGeometry x="-0.1818" y="2" relative="1" as="geometry">
            <mxPoint x="-2" y="-8" as="offset" />
          </mxGeometry>
        </mxCell>
        <mxCell id="Af0-aZXDuTqrMrXIIRP5-29" value="" style="edgeStyle=elbowEdgeStyle;rounded=0;orthogonalLoop=1;jettySize=auto;html=1;elbow=vertical;curved=0;" edge="1" parent="1" source="Af0-aZXDuTqrMrXIIRP5-2" target="aM9ryv3xv72pqoxQDRHE-6">
          <mxGeometry relative="1" as="geometry">
            <Array as="points">
              <mxPoint x="280" y="160" />
            </Array>
          </mxGeometry>
        </mxCell>
        <mxCell id="Af0-aZXDuTqrMrXIIRP5-30" value="confirmation" style="edgeLabel;html=1;align=center;verticalAlign=middle;resizable=0;points=[];" vertex="1" connectable="0" parent="Af0-aZXDuTqrMrXIIRP5-29">
          <mxGeometry x="-0.0389" y="-1" relative="1" as="geometry">
            <mxPoint x="-64" y="-9" as="offset" />
          </mxGeometry>
        </mxCell>
        <mxCell id="Af0-aZXDuTqrMrXIIRP5-31" value="" style="edgeStyle=elbowEdgeStyle;rounded=0;orthogonalLoop=1;jettySize=auto;html=1;elbow=vertical;curved=0;" edge="1" parent="1">
          <mxGeometry relative="1" as="geometry">
            <mxPoint x="235" y="170" as="sourcePoint" />
            <mxPoint x="125" y="170" as="targetPoint" />
          </mxGeometry>
        </mxCell>
        <mxCell id="Af0-aZXDuTqrMrXIIRP5-33" value="confirmation" style="edgeLabel;html=1;align=center;verticalAlign=middle;resizable=0;points=[];" vertex="1" connectable="0" parent="Af0-aZXDuTqrMrXIIRP5-31">
          <mxGeometry x="-0.24" relative="1" as="geometry">
            <mxPoint x="-23" y="-10" as="offset" />
          </mxGeometry>
        </mxCell>
        <mxCell id="Af0-aZXDuTqrMrXIIRP5-35" value="Kafka" style="shape=umlLifeline;perimeter=lifelinePerimeter;whiteSpace=wrap;html=1;container=0;dropTarget=0;collapsible=0;recursiveResize=0;outlineConnect=0;portConstraint=eastwest;newEdgeStyle={&quot;edgeStyle&quot;:&quot;elbowEdgeStyle&quot;,&quot;elbow&quot;:&quot;vertical&quot;,&quot;curved&quot;:0,&quot;rounded&quot;:0};" vertex="1" parent="1">
          <mxGeometry x="310" y="40" width="100" height="440" as="geometry" />
        </mxCell>
        <mxCell id="Af0-aZXDuTqrMrXIIRP5-47" value="" style="html=1;points=[];perimeter=orthogonalPerimeter;outlineConnect=0;targetShapes=umlLifeline;portConstraint=eastwest;newEdgeStyle={&quot;edgeStyle&quot;:&quot;elbowEdgeStyle&quot;,&quot;elbow&quot;:&quot;vertical&quot;,&quot;curved&quot;:0,&quot;rounded&quot;:0};" vertex="1" parent="Af0-aZXDuTqrMrXIIRP5-35">
          <mxGeometry x="45" y="210" width="10" height="10" as="geometry" />
        </mxCell>
        <mxCell id="Af0-aZXDuTqrMrXIIRP5-67" value="" style="html=1;points=[];perimeter=orthogonalPerimeter;outlineConnect=0;targetShapes=umlLifeline;portConstraint=eastwest;newEdgeStyle={&quot;edgeStyle&quot;:&quot;elbowEdgeStyle&quot;,&quot;elbow&quot;:&quot;vertical&quot;,&quot;curved&quot;:0,&quot;rounded&quot;:0};" vertex="1" parent="Af0-aZXDuTqrMrXIIRP5-35">
          <mxGeometry x="45" y="300" width="10" height="90" as="geometry" />
        </mxCell>
        <mxCell id="Af0-aZXDuTqrMrXIIRP5-38" value="" style="edgeStyle=elbowEdgeStyle;rounded=0;orthogonalLoop=1;jettySize=auto;html=1;elbow=vertical;curved=0;" edge="1" parent="1">
          <mxGeometry relative="1" as="geometry">
            <mxPoint x="485" y="189.7128571428571" as="sourcePoint" />
            <mxPoint x="715" y="189.7128571428571" as="targetPoint" />
          </mxGeometry>
        </mxCell>
        <mxCell id="Af0-aZXDuTqrMrXIIRP5-39" value="monitor traffic" style="edgeLabel;html=1;align=center;verticalAlign=middle;resizable=0;points=[];" vertex="1" connectable="0" parent="Af0-aZXDuTqrMrXIIRP5-38">
          <mxGeometry x="0.4211" relative="1" as="geometry">
            <mxPoint x="-108" y="-10" as="offset" />
          </mxGeometry>
        </mxCell>
        <mxCell id="Af0-aZXDuTqrMrXIIRP5-41" value="" style="edgeStyle=elbowEdgeStyle;rounded=0;orthogonalLoop=1;jettySize=auto;html=1;elbow=vertical;curved=0;" edge="1" parent="1" source="Af0-aZXDuTqrMrXIIRP5-37" target="Af0-aZXDuTqrMrXIIRP5-40">
          <mxGeometry relative="1" as="geometry">
            <Array as="points">
              <mxPoint x="810" y="200" />
            </Array>
          </mxGeometry>
        </mxCell>
        <mxCell id="Af0-aZXDuTqrMrXIIRP5-42" value="monitor traffic" style="edgeLabel;html=1;align=center;verticalAlign=middle;resizable=0;points=[];" vertex="1" connectable="0" parent="Af0-aZXDuTqrMrXIIRP5-41">
          <mxGeometry x="0.2156" y="-1" relative="1" as="geometry">
            <mxPoint x="-12" y="-11" as="offset" />
          </mxGeometry>
        </mxCell>
        <mxCell id="Af0-aZXDuTqrMrXIIRP5-43" value="" style="edgeStyle=elbowEdgeStyle;rounded=0;orthogonalLoop=1;jettySize=auto;html=1;elbow=vertical;curved=0;" edge="1" parent="1">
          <mxGeometry relative="1" as="geometry">
            <mxPoint x="835" y="229.99714285714288" as="sourcePoint" />
            <mxPoint x="725" y="229.99714285714288" as="targetPoint" />
          </mxGeometry>
        </mxCell>
        <mxCell id="Af0-aZXDuTqrMrXIIRP5-44" value="traffic data" style="edgeLabel;html=1;align=center;verticalAlign=middle;resizable=0;points=[];" vertex="1" connectable="0" parent="Af0-aZXDuTqrMrXIIRP5-43">
          <mxGeometry x="-0.1731" y="2" relative="1" as="geometry">
            <mxPoint x="-10" y="-12" as="offset" />
          </mxGeometry>
        </mxCell>
        <mxCell id="Af0-aZXDuTqrMrXIIRP5-45" value="" style="edgeStyle=elbowEdgeStyle;rounded=0;orthogonalLoop=1;jettySize=auto;html=1;elbow=vertical;curved=0;" edge="1" parent="1">
          <mxGeometry relative="1" as="geometry">
            <mxPoint x="715" y="239.99714285714288" as="sourcePoint" />
            <mxPoint x="485" y="239.99714285714288" as="targetPoint" />
          </mxGeometry>
        </mxCell>
        <mxCell id="Af0-aZXDuTqrMrXIIRP5-46" value="traffic data" style="edgeLabel;html=1;align=center;verticalAlign=middle;resizable=0;points=[];" vertex="1" connectable="0" parent="Af0-aZXDuTqrMrXIIRP5-45">
          <mxGeometry x="-0.4956" y="-1" relative="1" as="geometry">
            <mxPoint x="-127" y="-9" as="offset" />
          </mxGeometry>
        </mxCell>
        <mxCell id="Af0-aZXDuTqrMrXIIRP5-48" value="" style="edgeStyle=elbowEdgeStyle;rounded=0;orthogonalLoop=1;jettySize=auto;html=1;elbow=vertical;curved=0;" edge="1" parent="1" source="Af0-aZXDuTqrMrXIIRP5-36" target="Af0-aZXDuTqrMrXIIRP5-47">
          <mxGeometry relative="1" as="geometry">
            <Array as="points">
              <mxPoint x="450" y="250" />
            </Array>
          </mxGeometry>
        </mxCell>
        <mxCell id="Af0-aZXDuTqrMrXIIRP5-49" value="traffic data" style="edgeLabel;html=1;align=center;verticalAlign=middle;resizable=0;points=[];" vertex="1" connectable="0" parent="Af0-aZXDuTqrMrXIIRP5-48">
          <mxGeometry x="-0.3299" y="-2" relative="1" as="geometry">
            <mxPoint x="-13" y="-8" as="offset" />
          </mxGeometry>
        </mxCell>
        <mxCell id="Af0-aZXDuTqrMrXIIRP5-53" value="" style="edgeStyle=elbowEdgeStyle;rounded=0;orthogonalLoop=1;jettySize=auto;html=1;elbow=vertical;curved=0;" edge="1" parent="1">
          <mxGeometry relative="1" as="geometry">
            <mxPoint x="355" y="259.43" as="sourcePoint" />
            <mxPoint x="245" y="259.43" as="targetPoint" />
            <Array as="points">
              <mxPoint x="290" y="259.43" />
            </Array>
          </mxGeometry>
        </mxCell>
        <mxCell id="Af0-aZXDuTqrMrXIIRP5-55" value="traffic data" style="edgeLabel;html=1;align=center;verticalAlign=middle;resizable=0;points=[];" vertex="1" connectable="0" parent="Af0-aZXDuTqrMrXIIRP5-53">
          <mxGeometry x="0.2312" y="-1" relative="1" as="geometry">
            <mxPoint x="3" y="-8" as="offset" />
          </mxGeometry>
        </mxCell>
        <mxCell id="Af0-aZXDuTqrMrXIIRP5-57" value="" style="edgeStyle=elbowEdgeStyle;rounded=0;orthogonalLoop=1;jettySize=auto;html=1;elbow=vertical;curved=0;" edge="1" parent="1" target="aM9ryv3xv72pqoxQDRHE-1">
          <mxGeometry relative="1" as="geometry">
            <mxPoint x="235" y="279.9971428571429" as="sourcePoint" />
            <mxPoint x="125" y="279.9971428571429" as="targetPoint" />
          </mxGeometry>
        </mxCell>
        <mxCell id="Af0-aZXDuTqrMrXIIRP5-58" value="traffic data" style="edgeLabel;html=1;align=center;verticalAlign=middle;resizable=0;points=[];" vertex="1" connectable="0" parent="Af0-aZXDuTqrMrXIIRP5-57">
          <mxGeometry x="-0.361" y="2" relative="1" as="geometry">
            <mxPoint x="-30" y="-12" as="offset" />
          </mxGeometry>
        </mxCell>
        <mxCell id="Af0-aZXDuTqrMrXIIRP5-65" value="" style="edgeStyle=elbowEdgeStyle;rounded=0;orthogonalLoop=1;jettySize=auto;html=1;elbow=vertical;curved=0;" edge="1" parent="1" source="Af0-aZXDuTqrMrXIIRP5-59" target="Af0-aZXDuTqrMrXIIRP5-64">
          <mxGeometry relative="1" as="geometry">
            <Array as="points">
              <mxPoint x="170" y="330" />
            </Array>
          </mxGeometry>
        </mxCell>
        <mxCell id="Af0-aZXDuTqrMrXIIRP5-66" value="change rule" style="edgeLabel;html=1;align=center;verticalAlign=middle;resizable=0;points=[];" vertex="1" connectable="0" parent="Af0-aZXDuTqrMrXIIRP5-65">
          <mxGeometry x="-0.1442" y="2" relative="1" as="geometry">
            <mxPoint x="8" y="-8" as="offset" />
          </mxGeometry>
        </mxCell>
        <mxCell id="Af0-aZXDuTqrMrXIIRP5-68" value="" style="edgeStyle=elbowEdgeStyle;rounded=0;orthogonalLoop=1;jettySize=auto;html=1;elbow=vertical;curved=0;" edge="1" parent="1" source="Af0-aZXDuTqrMrXIIRP5-64" target="Af0-aZXDuTqrMrXIIRP5-67">
          <mxGeometry relative="1" as="geometry">
            <Array as="points">
              <mxPoint x="340" y="340" />
            </Array>
          </mxGeometry>
        </mxCell>
        <mxCell id="Af0-aZXDuTqrMrXIIRP5-69" value="change rule" style="edgeLabel;html=1;align=center;verticalAlign=middle;resizable=0;points=[];" vertex="1" connectable="0" parent="Af0-aZXDuTqrMrXIIRP5-68">
          <mxGeometry x="-0.2069" y="1" relative="1" as="geometry">
            <mxPoint x="12" y="-9" as="offset" />
          </mxGeometry>
        </mxCell>
        <mxCell id="Af0-aZXDuTqrMrXIIRP5-71" value="" style="edgeStyle=elbowEdgeStyle;rounded=0;orthogonalLoop=1;jettySize=auto;html=1;elbow=vertical;curved=0;" edge="1" parent="1" source="Af0-aZXDuTqrMrXIIRP5-67" target="Af0-aZXDuTqrMrXIIRP5-70">
          <mxGeometry relative="1" as="geometry">
            <mxPoint x="480" y="370" as="targetPoint" />
            <Array as="points">
              <mxPoint x="540" y="350" />
            </Array>
          </mxGeometry>
        </mxCell>
        <mxCell id="Af0-aZXDuTqrMrXIIRP5-72" value="change rule" style="edgeLabel;html=1;align=center;verticalAlign=middle;resizable=0;points=[];" vertex="1" connectable="0" parent="Af0-aZXDuTqrMrXIIRP5-71">
          <mxGeometry x="0.081" relative="1" as="geometry">
            <mxPoint x="-59" y="-10" as="offset" />
          </mxGeometry>
        </mxCell>
        <mxCell id="Af0-aZXDuTqrMrXIIRP5-74" value="" style="edgeStyle=elbowEdgeStyle;rounded=0;orthogonalLoop=1;jettySize=auto;html=1;elbow=vertical;curved=0;" edge="1" parent="1" source="Af0-aZXDuTqrMrXIIRP5-70" target="Af0-aZXDuTqrMrXIIRP5-73">
          <mxGeometry relative="1" as="geometry">
            <Array as="points">
              <mxPoint x="640" y="360" />
            </Array>
          </mxGeometry>
        </mxCell>
        <mxCell id="Af0-aZXDuTqrMrXIIRP5-75" value="change rule" style="edgeLabel;html=1;align=center;verticalAlign=middle;resizable=0;points=[];" vertex="1" connectable="0" parent="Af0-aZXDuTqrMrXIIRP5-74">
          <mxGeometry x="0.4201" y="1" relative="1" as="geometry">
            <mxPoint x="-23" y="-9" as="offset" />
          </mxGeometry>
        </mxCell>
        <mxCell id="Af0-aZXDuTqrMrXIIRP5-79" value="" style="edgeStyle=elbowEdgeStyle;rounded=0;orthogonalLoop=1;jettySize=auto;html=1;elbow=horizontal;curved=0;" edge="1" parent="1" source="Af0-aZXDuTqrMrXIIRP5-73" target="Af0-aZXDuTqrMrXIIRP5-19">
          <mxGeometry relative="1" as="geometry">
            <mxPoint x="835" y="394.8620689655173" as="targetPoint" />
            <Array as="points">
              <mxPoint x="780" y="370" />
            </Array>
          </mxGeometry>
        </mxCell>
        <mxCell id="Af0-aZXDuTqrMrXIIRP5-81" value="change rule" style="edgeLabel;html=1;align=center;verticalAlign=middle;resizable=0;points=[];" vertex="1" connectable="0" parent="Af0-aZXDuTqrMrXIIRP5-79">
          <mxGeometry x="-0.2501" y="1" relative="1" as="geometry">
            <mxPoint x="12" y="-9" as="offset" />
          </mxGeometry>
        </mxCell>
        <mxCell id="Af0-aZXDuTqrMrXIIRP5-82" value="" style="edgeStyle=elbowEdgeStyle;rounded=0;orthogonalLoop=1;jettySize=auto;html=1;elbow=vertical;curved=0;" edge="1" parent="1" source="Af0-aZXDuTqrMrXIIRP5-73" target="Af0-aZXDuTqrMrXIIRP5-70">
          <mxGeometry relative="1" as="geometry">
            <Array as="points">
              <mxPoint x="670" y="410" />
              <mxPoint x="690" y="400" />
            </Array>
          </mxGeometry>
        </mxCell>
        <mxCell id="Af0-aZXDuTqrMrXIIRP5-83" value="updated&amp;nbsp;&lt;br&gt;rules" style="edgeLabel;html=1;align=center;verticalAlign=middle;resizable=0;points=[];" vertex="1" connectable="0" parent="Af0-aZXDuTqrMrXIIRP5-82">
          <mxGeometry x="-0.2194" y="-1" relative="1" as="geometry">
            <mxPoint x="-12" y="-19" as="offset" />
          </mxGeometry>
        </mxCell>
        <mxCell id="Af0-aZXDuTqrMrXIIRP5-84" value="" style="edgeStyle=elbowEdgeStyle;rounded=0;orthogonalLoop=1;jettySize=auto;html=1;elbow=vertical;curved=0;" edge="1" parent="1">
          <mxGeometry relative="1" as="geometry">
            <mxPoint x="595" y="420.0020689655173" as="sourcePoint" />
            <mxPoint x="365" y="420.0020689655173" as="targetPoint" />
          </mxGeometry>
        </mxCell>
        <mxCell id="Af0-aZXDuTqrMrXIIRP5-85" value="updated&lt;br&gt;rules" style="edgeLabel;html=1;align=center;verticalAlign=middle;resizable=0;points=[];" vertex="1" connectable="0" parent="Af0-aZXDuTqrMrXIIRP5-84">
          <mxGeometry x="-0.2909" y="-1" relative="1" as="geometry">
            <mxPoint x="-88" y="-19" as="offset" />
          </mxGeometry>
        </mxCell>
        <mxCell id="Af0-aZXDuTqrMrXIIRP5-86" value="" style="edgeStyle=elbowEdgeStyle;rounded=0;orthogonalLoop=1;jettySize=auto;html=1;elbow=vertical;curved=0;" edge="1" parent="1" source="Af0-aZXDuTqrMrXIIRP5-67" target="Af0-aZXDuTqrMrXIIRP5-64">
          <mxGeometry relative="1" as="geometry">
            <Array as="points">
              <mxPoint x="320" y="430" />
            </Array>
          </mxGeometry>
        </mxCell>
        <mxCell id="Af0-aZXDuTqrMrXIIRP5-88" value="updated&lt;br&gt;rules" style="edgeLabel;html=1;align=center;verticalAlign=middle;resizable=0;points=[];" vertex="1" connectable="0" parent="Af0-aZXDuTqrMrXIIRP5-86">
          <mxGeometry x="0.0063" y="-2" relative="1" as="geometry">
            <mxPoint y="-18" as="offset" />
          </mxGeometry>
        </mxCell>
        <mxCell id="Af0-aZXDuTqrMrXIIRP5-89" value="" style="edgeStyle=elbowEdgeStyle;rounded=0;orthogonalLoop=1;jettySize=auto;html=1;elbow=vertical;curved=0;" edge="1" parent="1">
          <mxGeometry relative="1" as="geometry">
            <mxPoint x="235" y="439.9968965517242" as="sourcePoint" />
            <mxPoint x="125" y="439.9968965517242" as="targetPoint" />
          </mxGeometry>
        </mxCell>
        <mxCell id="Af0-aZXDuTqrMrXIIRP5-90" value="updated&lt;br&gt;rules" style="edgeLabel;html=1;align=center;verticalAlign=middle;resizable=0;points=[];" vertex="1" connectable="0" parent="Af0-aZXDuTqrMrXIIRP5-89">
          <mxGeometry x="0.1191" y="-1" relative="1" as="geometry">
            <mxPoint x="6" y="-14" as="offset" />
          </mxGeometry>
        </mxCell>
      </root>
    </mxGraphModel>
  </diagram>
</mxfile>
